<svg width="618" height="474" viewBox="0 0 618 474" fill="none" xmlns="http://www.w3.org/2000/svg">
<g opacity="0.1">
<path d="M304.086 124.529C403.958 124.53 485.44 207.418 485.44 310.312C485.44 413.207 403.959 496.095 304.086 496.096C204.213 496.096 122.73 413.208 122.73 310.312C122.731 207.418 204.213 124.529 304.086 124.529Z" stroke="white" stroke-width="27.2291"/>
<path d="M304.085 65.353C435.914 65.353 543.302 174.736 543.302 310.313C543.302 445.89 435.914 555.272 304.085 555.272C172.257 555.272 64.8688 445.89 64.8686 310.313C64.8686 174.736 172.256 65.3531 304.085 65.353Z" stroke="white" stroke-width="27.2291"/>
<path d="M309.118 13.8955C471.513 13.8958 603.68 148.62 603.68 315.458C603.68 482.296 471.513 617.02 309.118 617.021C146.722 617.021 14.5541 482.296 14.5541 315.458C14.5543 148.62 146.722 13.8955 309.118 13.8955Z" stroke="white" stroke-width="27.2291"/>
</g>
</svg>
