<?xml version="1.0" encoding="UTF-8"?>
<svg version="1.1" xmlns="http://www.w3.org/2000/svg" width="1920" height="1472">
<path d="M0 0 C1.30452482 0.00376332 1.30452482 0.00376332 2.63540368 0.00760266 C4.01541183 0.00568553 4.01541183 0.00568553 5.42329893 0.00372967 C8.55318935 0.00062999 11.68303075 0.00475228 14.8129196 0.00875333 C17.07036648 0.00801466 19.32781324 0.00683712 21.58525969 0.00525683 C27.8484881 0.00216596 34.11170047 0.00538089 40.37492769 0.00953496 C46.46700321 0.01259908 52.5590758 0.01096731 58.65115159 0.0094514 C71.27242478 0.00647904 83.89369337 0.00826608 96.51496599 0.01259568 C109.31341382 0.01696677 122.11185927 0.01916908 134.91030787 0.01869347 C136.1207785 0.01865044 136.1207785 0.01865044 137.35570309 0.01860653 C141.4701651 0.01845016 145.58462711 0.01825821 149.69908912 0.01805369 C179.51540249 0.01664447 209.33171373 0.02008298 239.14802645 0.0260711 C268.68527199 0.03198902 298.22251662 0.03584528 327.75976275 0.03692391 C328.67631185 0.03695832 329.59286096 0.03699274 330.53718428 0.03702819 C338.90817106 0.03734138 347.27915785 0.03762907 355.65014463 0.03788616 C376.46157905 0.03852565 397.27301345 0.03948502 418.08444784 0.04066136 C419.50617261 0.04074134 419.50617261 0.04074134 420.95661908 0.04082293 C467.08778371 0.04344588 513.21894774 0.04975402 559.35011194 0.0563617 C575.36317346 0.05865332 591.37623498 0.06092866 607.38929651 0.0631366 C608.87894828 0.06334203 608.87894828 0.06334203 610.39869401 0.0635516 C656.54599189 0.06989304 702.69328987 0.07362042 748.84058808 0.0766714 C751.83567454 0.07686946 754.83076101 0.07706866 757.82584748 0.07726808 C777.67406596 0.07858783 797.52228443 0.07986249 817.37050292 0.08110694 C856.86517296 0.08358359 896.35984298 0.08632527 935.854513 0.08924898 C937.73544804 0.08938822 939.61638309 0.08952728 941.49731814 0.08966615 C1026.19711038 0.09592103 1110.89690218 0.10525954 1195.59669398 0.11593201 C1196.38996553 0.11603195 1197.18323709 0.11613188 1198.00054718 0.11623485 C1237.67639497 0.12123554 1277.35224273 0.12641208 1317.02809046 0.13180115 C1317.0514169 23.32284603 1317.06906838 46.51388899 1317.07990263 69.70494321 C1317.08506613 80.47215179 1317.09210986 91.2393531 1317.10352991 102.00655701 C1317.1134751 111.3876536 1317.11994349 120.76874493 1317.12217895 130.14984664 C1317.12348634 135.12030333 1317.12657396 140.09074495 1317.13382052 145.06119683 C1317.14057813 149.73388238 1317.14270795 154.40654656 1317.14119814 159.07923653 C1317.14147459 160.79941632 1317.14348124 162.51959677 1317.14729593 164.23977235 C1317.15222916 166.57786776 1317.15109014 168.91588119 1317.14834498 171.25397828 C1317.14926677 172.56568969 1317.15018856 173.87740111 1317.15113829 175.22886136 C1317.02809046 178.13180115 1317.02809046 178.13180115 1316.02809046 179.13180115 C1313.15368523 179.2316674 1310.30325507 179.26506047 1307.42833994 179.25715032 C1306.50915317 179.25855264 1305.58996639 179.25995495 1304.64292547 179.26139976 C1301.51582475 179.26492158 1298.38877212 179.26122167 1295.261672 179.2576423 C1293.00623312 179.25868397 1290.7507944 179.26016412 1288.49535607 179.26204666 C1282.23769682 179.2659744 1275.98005281 179.26359326 1269.72239379 179.26026871 C1263.63572043 179.25800846 1257.54905059 179.26043763 1251.46237755 179.26274576 C1238.85226668 179.26735713 1226.24215983 179.26719025 1213.63204859 179.26446488 C1200.84488752 179.26171804 1188.0577291 179.26112972 1175.27056788 179.26320222 C1174.06116287 179.26339598 1174.06116287 179.26339598 1172.82732545 179.26359365 C1169.54376246 179.26412689 1166.26019948 179.2646756 1162.9766365 179.26524392 C1132.35906238 179.2705396 1101.74149004 179.27088917 1071.12391566 179.26809647 C1070.21576744 179.26801368 1069.30761922 179.26793088 1068.37195135 179.26784558 C1067.00756586 179.26772118 1067.00756586 179.26772118 1065.61561702 179.26759428 C1037.9395907 179.26507426 1010.26356511 179.26441823 982.5875387 179.26561692 C980.73649165 179.2656944 978.8854446 179.26577156 977.03439756 179.26584839 C969.59639577 179.26615884 962.15839398 179.2664775 954.7203922 179.26680815 C933.92620943 179.2677253 913.13202666 179.2682958 892.33784388 179.26859429 C891.39081079 179.26860794 890.4437777 179.26862158 889.46804664 179.26863564 C859.27722536 179.26904511 829.08640433 179.26791704 798.89558314 179.26574471 C797.42608459 179.26563934 797.42608459 179.26563934 795.9268992 179.26553184 C780.01629547 179.2643868 764.10569174 179.26316738 748.195088 179.26194166 C685.08603603 179.25708507 621.97698618 179.25731048 558.86793421 179.26217225 C542.96548874 179.26339337 527.06304326 179.26460439 511.16059778 179.26574471 C509.69197575 179.26585038 509.69197575 179.26585038 508.19368459 179.26595819 C478.03523537 179.26811336 447.87678633 179.26902884 417.71833704 179.26859429 C416.77199341 179.26858071 415.82564978 179.26856712 414.85062906 179.26855313 C394.07981215 179.26824069 373.30899525 179.26760714 352.53817835 179.26668379 C345.1067002 179.26635463 337.67522205 179.26604155 330.2437439 179.26573308 C328.39487051 179.26565569 326.54599712 179.26557696 324.69712373 179.26549688 C297.0261587 179.26430173 269.35519449 179.26532275 241.68422957 179.26784558 C240.77608135 179.26792837 239.86793313 179.26801117 238.93226526 179.26809647 C238.02578156 179.26817916 237.11929786 179.26826184 236.18534495 179.26834703 C205.65876737 179.27110097 175.13219192 179.27009936 144.60561465 179.26481573 C141.33228078 179.26426334 138.05894691 179.26372664 134.78561304 179.26320222 C133.9822443 179.26307201 133.17887555 179.2629418 132.3511623 179.26280765 C119.59454749 179.26082989 106.83793533 179.26221419 94.08132077 179.26497122 C81.55892964 179.26760682 69.03654301 179.26670575 56.51415247 179.26195713 C49.80662246 179.25951104 43.0991038 179.25879956 36.39157341 179.26236312 C30.30413386 179.26556451 24.21671348 179.26426345 18.12927536 179.25918246 C15.92676683 179.25816523 13.72425675 179.25886734 11.52174942 179.2613884 C8.5570893 179.26454422 5.59249778 179.26167322 2.62784098 179.25715032 C1.75893515 179.25954106 0.89002933 179.2619318 -0.00520697 179.26439499 C-5.85775385 179.24595685 -5.85775385 179.24595685 -6.97190954 178.13180115 C-7.07120016 175.85586274 -7.09823403 173.5767744 -7.09889318 171.29867127 C-7.10045317 170.57573365 -7.10201316 169.85279602 -7.10362043 169.10795119 C-7.10763297 166.66731319 -7.10443981 164.22673657 -7.10130407 161.78609803 C-7.102658 160.04375248 -7.10443788 158.30140722 -7.10661413 156.55906251 C-7.11118947 151.81333107 -7.10939849 147.06762126 -7.10623504 142.32188943 C-7.10371196 137.3668838 -7.10604884 132.41188009 -7.10762121 127.4568744 C-7.10944306 119.13415778 -7.1070362 110.81145002 -7.10228063 102.48873475 C-7.09683799 92.85197492 -7.09860063 83.21523625 -7.10410704 73.57847693 C-7.10863774 65.32033357 -7.10928893 57.06219659 -7.10666837 48.80405238 C-7.10510536 43.86491282 -7.10491249 38.92578322 -7.10820486 33.98664429 C-7.11108295 29.34430972 -7.10910903 24.70200255 -7.1033106 20.05967095 C-7.10198267 18.35077986 -7.10237768 16.64188649 -7.10457327 14.9329963 C-7.10728348 12.61027621 -7.10390525 10.28764536 -7.09889318 7.96493104 C-7.09851616 6.66189278 -7.09813913 5.35885453 -7.09775068 4.01633027 C-6.87361205 -1.12137266 -4.56477563 0.01375112 0 0 Z " fill="#00629F" transform="translate(304.9719095400069,319.8681988453027)"/>
<path d="M0 0 C436.92 0 873.84 0 1324 0 C1324 58.74 1324 117.48 1324 178 C887.08 178 450.16 178 0 178 C0 119.26 0 60.52 0 0 Z " fill="#FAAC39" transform="translate(298,978)"/>
<path d="M0 0 C484.44 0 968.88 0 1468 0 C1468 325.38 1468 650.76 1468 986 C983.56 986 499.12 986 0 986 C0 660.62 0 335.24 0 0 Z M30 30 C30 335.58 30 641.16 30 956 C494.64 956 959.28 956 1438 956 C1438 650.42 1438 344.84 1438 30 C973.36 30 508.72 30 30 30 Z " fill="#006CB5" transform="translate(226,244)"/>
<path d="M0 0 C1.64623339 0.0037362 3.29246902 0.0065803 4.93870544 0.00857544 C9.24425537 0.01616417 13.54966757 0.03577104 17.85516357 0.0579834 C22.25954323 0.07854511 26.66394542 0.08759911 31.06835938 0.09765625 C39.69016694 0.11902202 48.31186315 0.15309956 56.93359375 0.1953125 C57.13672684 1.17427317 57.13672684 1.17427317 57.34396362 2.17301083 C61.33435798 21.40344184 65.32665054 40.63347836 69.32013065 59.86326879 C70.21442205 64.16956895 71.10865868 68.47588047 72.00276566 72.78221893 C80.49798905 113.69815813 89.01015761 154.61043638 97.58318281 195.51015306 C98.33131532 199.07955686 99.07920738 202.64901103 99.82709754 206.21846563 C103.05881002 221.64217524 106.29137668 237.06570122 109.53285307 252.48736221 C110.87537039 258.8751648 112.21569598 265.26342478 113.55437189 271.65203351 C114.47438644 276.0419959 115.39710694 280.43137682 116.32203662 284.82030612 C117.01408655 288.10833831 117.70191721 291.39725024 118.39038086 294.68603516 C118.75851898 296.42648432 118.75851898 296.42648432 119.13409424 298.20209408 C119.35840622 299.27756276 119.5827182 300.35303144 119.81382751 301.46109009 C120.00732253 302.38197229 120.20081755 303.3028545 120.40017605 304.25164223 C121.05696561 307.87614121 121.47670855 311.54023092 121.93359375 315.1953125 C96.52359375 315.1953125 71.11359375 315.1953125 44.93359375 315.1953125 C43.44859375 308.1621875 41.96359375 301.1290625 40.43359375 293.8828125 C39.96373047 291.66522217 39.49386719 289.44763184 39.00976562 287.1628418 C38.64038591 285.40678855 38.27122994 283.65068823 37.90234375 281.89453125 C37.70801758 280.98143188 37.51369141 280.06833252 37.31347656 279.12756348 C37.13075195 278.25490845 36.94802734 277.38225342 36.75976562 276.4831543 C36.59988159 275.72592575 36.43999756 274.9686972 36.27526855 274.18852234 C35.93359375 272.1953125 35.93359375 272.1953125 35.93359375 269.1953125 C1.94359375 269.1953125 -32.04640625 269.1953125 -67.06640625 269.1953125 C-67.39640625 270.8453125 -67.72640625 272.4953125 -68.06640625 274.1953125 C-68.53127839 275.64968219 -69.02904155 277.09389403 -69.55688477 278.52661133 C-69.86130493 279.35841919 -70.1657251 280.19022705 -70.47937012 281.04724121 C-70.7981311 281.90692505 -71.11689209 282.76660889 -71.4453125 283.65234375 C-71.73917847 284.45329468 -72.03304443 285.25424561 -72.33581543 286.07946777 C-73.42950089 289.05705919 -74.52958077 292.03229876 -75.62890625 295.0078125 C-78.08328125 301.6696875 -80.53765625 308.3315625 -83.06640625 315.1953125 C-111.77640625 315.1953125 -140.48640625 315.1953125 -170.06640625 315.1953125 C-168.16278498 308.84990826 -166.30414093 302.98649074 -163.6875 296.98046875 C-163.3636734 296.22448395 -163.0398468 295.46849915 -162.70620728 294.68960571 C-162.00827374 293.06156188 -161.30797234 291.43453142 -160.60549927 289.80844116 C-158.68267402 285.35633126 -156.77853046 280.8962189 -154.87109375 276.4375 C-154.47404739 275.51077988 -154.07700104 274.58405975 -153.66792297 273.6292572 C-149.43293197 263.73687672 -145.27643338 253.81210914 -141.12890625 243.8828125 C-140.37553072 242.08063005 -139.62211254 240.27846542 -138.86865234 238.47631836 C-136.97676942 233.9504556 -135.08593455 229.4241557 -133.1953125 224.89776611 C-129.84223863 216.87094671 -126.48628926 208.84533036 -123.12890625 200.8203125 C-122.75869354 199.93527039 -122.38848083 199.05022827 -122.00704956 198.1383667 C-115.87328397 183.47772307 -109.69451904 168.83639031 -103.50369263 154.19976807 C-97.30966785 139.55155418 -91.17331357 124.88004084 -85.06640625 110.1953125 C-78.37862973 94.1152269 -71.65439249 78.0511523 -64.87890625 62.0078125 C-64.49661865 61.10216553 -64.11433105 60.19651855 -63.72045898 59.26342773 C-61.90084609 54.95394298 -60.0769204 50.646395 -58.24462891 46.34228516 C-56.71419554 42.74249437 -55.2142964 39.13142056 -53.72802734 35.51318359 C-52.94894506 33.64027792 -52.1698124 31.7673932 -51.390625 29.89453125 C-50.87312431 28.61301933 -50.87312431 28.61301933 -50.34516907 27.30561829 C-45.90126834 16.70189412 -38.92196142 7.84347441 -28.23655701 3.07247925 C-19.13552003 -0.60612556 -9.62180257 -0.0644595 0 0 Z M-2.06640625 91.1953125 C-2.31680161 91.88243317 -2.56719696 92.56955383 -2.82518005 93.27749634 C-5.52500488 100.68554995 -8.22617516 108.09311196 -10.92819214 115.50036621 C-11.97608807 118.37307124 -13.02369407 121.24588175 -14.07107544 124.11877441 C-19.4716528 138.93092975 -24.88097141 153.73926868 -30.37890625 168.515625 C-30.77892349 169.59184113 -31.17894073 170.66805725 -31.59107971 171.77688599 C-33.45002202 176.77638946 -35.31435666 181.77377489 -37.18725586 186.76806641 C-37.84375877 188.53020954 -38.50010058 190.29241271 -39.15625 192.0546875 C-39.45511108 192.84545685 -39.75397217 193.6362262 -40.06188965 194.45095825 C-41.19241516 197.4987455 -42.06640625 199.91657289 -42.06640625 203.1953125 C-20.94640625 203.1953125 0.17359375 203.1953125 21.93359375 203.1953125 C21.21007175 196.26137547 21.21007175 196.26137547 20.06752014 189.47090149 C19.90075272 188.65102753 19.73398529 187.83115356 19.56216431 186.98643494 C19.3818869 186.12119705 19.2016095 185.25595917 19.01586914 184.36450195 C18.82386429 183.42672913 18.63185944 182.4889563 18.43403625 181.52276611 C17.80385296 178.45052037 17.16774993 175.37953652 16.53125 172.30859375 C16.08881276 170.16111876 15.64663236 168.01359084 15.20469666 165.86601257 C14.28013609 161.37781745 13.35267073 156.89023532 12.4230957 152.40307617 C11.23306689 146.65763865 10.05000769 140.91079256 8.86907291 135.1634798 C7.95811122 130.73368623 7.04362096 126.30462687 6.12804985 121.87578392 C5.69043511 119.75694607 5.253878 117.63788949 4.81840706 115.51861 C4.20940063 112.55763707 3.59568436 109.59767842 2.98071289 106.63793945 C2.80245972 105.76662888 2.62420654 104.8953183 2.44055176 103.99760437 C1.52451722 99.6147059 0.46116225 95.41659333 -1.06640625 91.1953125 C-1.39640625 91.1953125 -1.72640625 91.1953125 -2.06640625 91.1953125 Z " fill="#006CB5" transform="translate(1340.06640625,578.8046875)"/>
<path d="M0 0 C1.7282325 -0.01073296 1.7282325 -0.01073296 3.49137878 -0.02168274 C4.76711258 -0.02437164 6.04284637 -0.02706055 7.35723877 -0.02983093 C8.70573605 -0.0360934 10.05423159 -0.04274 11.40272522 -0.04974365 C15.84751168 -0.07083575 20.29229864 -0.08115991 24.73712158 -0.09111023 C26.2688219 -0.09515773 27.80052204 -0.09927465 29.33222198 -0.10346031 C36.53770801 -0.12253375 43.74318374 -0.13675273 50.94869018 -0.14507228 C59.24772565 -0.15481317 67.54649216 -0.18104055 75.845433 -0.22157317 C82.26768608 -0.25185397 88.6898627 -0.26655296 95.11218572 -0.26985329 C98.94294096 -0.27219285 102.77340964 -0.28100696 106.60408783 -0.30631447 C110.21897633 -0.32980635 113.83339406 -0.33374508 117.44833946 -0.32355309 C119.38652491 -0.32283098 121.32468756 -0.34177937 123.26277161 -0.36161804 C135.0573353 -0.29256257 146.62378097 2.17859773 155.69024658 10.14717102 C164.8668936 19.64643453 166.50391824 31.3973986 168.90484619 43.92207336 C169.21354537 45.50841736 169.52277949 47.09465732 169.83250427 48.68080139 C170.66846219 52.96964495 171.4970765 57.25987797 172.32443309 61.55038786 C173.19622847 66.06404371 174.07512841 70.57631561 174.95332336 75.08872986 C176.617699 83.64617862 178.27620853 92.20475256 179.93237931 100.76379263 C182.35203672 113.26739622 184.77932172 125.76951936 187.20800877 138.27137184 C187.38742903 139.19495786 187.5668493 140.11854388 187.75170654 141.07011735 C188.11006809 142.91478798 188.46844877 144.75945489 188.82684904 146.60411799 C189.86569503 151.95212295 190.90243145 157.30053133 191.93739825 162.6492883 C196.62531089 186.93642732 196.62531089 186.93642732 201.69024658 211.14717102 C202.01279419 210.24137299 202.01279419 210.24137299 202.34185791 209.317276 C220.69176852 157.79331748 220.69176852 157.79331748 229.50274658 133.64717102 C236.10110828 115.56325577 242.62378005 97.45268782 249.12774658 79.33467102 C251.08585967 73.88016484 253.04408346 68.42569846 255.00274658 62.97138977 C255.2422617 62.30439938 255.48177681 61.63740898 255.72854996 60.95020676 C263.01226506 40.66918845 270.35199938 20.40852613 277.69024658 0.14717102 C307.39024658 0.14717102 337.09024658 0.14717102 367.69024658 0.14717102 C365.73689675 6.65833712 363.77771497 12.72042743 361.12774658 18.91279602 C360.78436752 19.72739288 360.44098846 20.54198975 360.08720398 21.38127136 C359.34655579 23.13703105 358.60364676 24.89183846 357.8586731 26.64576721 C355.82442297 31.43600732 353.80767632 36.23362609 351.78790283 41.02998352 C351.15731712 42.52542191 351.15731712 42.52542191 350.51399231 44.05107117 C345.99784326 54.76915424 341.55943688 65.51895572 337.12774658 76.27217102 C335.53553763 80.13294668 333.94295457 83.993568 332.35040283 87.85420227 C331.76512817 89.27330147 331.76512817 89.27330147 331.16802979 90.72106934 C327.14558762 100.47217304 323.10702162 110.2165679 319.06524658 119.95967102 C318.71741119 120.79827667 318.36957581 121.63688232 318.01119995 122.50090027 C315.2242041 129.22010095 312.43638684 135.93896071 309.64849854 142.65779114 C307.20368214 148.54991892 304.75921107 154.44218982 302.31524658 160.33467102 C301.96766296 161.17269257 301.62007935 162.01071411 301.26196289 162.87413025 C295.55858028 176.62652729 289.87159223 190.38565739 284.19024658 204.14717102 C277.47203589 220.42020805 270.74352234 236.68891039 263.9944458 252.94917297 C263.30449199 254.61152134 262.6145506 256.27387486 261.92462158 257.93623352 C261.58315094 258.75897263 261.2416803 259.58171173 260.88986206 260.42938232 C258.63924744 265.85407122 256.39440892 271.28112217 254.15286255 276.70956421 C252.58578947 280.50427184 251.01712422 284.29832041 249.44836426 288.09233093 C248.70078775 289.90159494 247.95398536 291.71117904 247.20800781 293.52110291 C246.17543559 296.02619429 245.14015602 298.53015105 244.10430908 301.03388977 C243.8019635 301.76945099 243.49961792 302.50501221 243.18811035 303.26286316 C242.90216003 303.95260223 242.61620972 304.64234131 242.32159424 305.35298157 C242.07752838 305.9443541 241.83346252 306.53572662 241.58200073 307.14501953 C240.37519314 309.85452374 239.01673048 312.49420323 237.69024658 315.14717102 C208.98024658 315.14717102 180.27024658 315.14717102 150.69024658 315.14717102 C141.05652175 278.36385804 131.45507816 241.57256519 121.89302444 204.77058029 C112.9113754 170.20246697 103.91163951 135.63917074 94.87774658 101.08467102 C94.63401054 100.15229992 94.39027451 99.21992882 94.13915253 98.25930405 C92.5251094 92.08509357 90.91059821 85.91100566 89.29571533 79.73701477 C88.9944873 78.58518959 88.9944873 78.58518959 88.68717384 77.41009521 C88.4932826 76.66876846 88.29939137 75.92744171 88.09962463 75.16365051 C87.81486472 74.0722473 87.81486472 74.0722473 87.52435207 72.95879555 C87.14949845 71.53039787 86.77074665 70.10301682 86.38787174 68.67674828 C85.35471861 64.80880269 84.41520572 60.93899954 83.5697937 57.02537537 C83.37347257 56.16896485 83.17715143 55.31255434 82.97488117 54.43019199 C82.59979584 52.78927619 82.24834558 51.1426984 81.92571545 49.4906683 C80.85267067 44.93718008 79.61511481 42.6730519 75.74591064 39.93351746 C72.90907829 38.18802038 70.04207631 36.65461599 66.95196533 35.40107727 C63.31612768 33.8645478 59.78680439 32.22227956 56.27227783 30.42451477 C38.3703021 21.34527581 19.57291654 14.69386807 0.34942627 8.99751282 C-5.10238005 7.35454439 -5.10238005 7.35454439 -7.30975342 5.14717102 C-6.51493481 -0.09863177 -5.01877096 0.02129373 0 0 Z " fill="#006CB5" transform="translate(465.30975341796875,578.8528289794922)"/>
<path d="M0 0 C1.33783539 -0.00855011 1.33783539 -0.00855011 2.70269775 -0.01727295 C4.58515257 -0.02666574 6.4676234 -0.03323398 8.35009766 -0.03710938 C11.15428583 -0.04670783 13.95770527 -0.0777415 16.76171875 -0.109375 C33.96777538 -0.21156952 50.61388461 1.78414206 67.265625 6.203125 C68.24853516 6.450625 69.23144531 6.698125 70.24414062 6.953125 C75.80362384 8.38302557 81.11901071 10.08210441 86.453125 12.203125 C83.5814403 30.08906591 80.70191091 47.97349343 77.640625 65.828125 C77.4341333 67.04072998 77.2276416 68.25333496 77.01489258 69.50268555 C76.72714966 71.16811401 76.72714966 71.16811401 76.43359375 72.8671875 C76.18452271 74.31279053 76.18452271 74.31279053 75.93041992 75.78759766 C75.453125 78.203125 75.453125 78.203125 74.453125 81.203125 C70.29693134 80.55299415 66.85670832 79.14477123 63.015625 77.453125 C36.77574974 66.57341796 3.66920953 62.89314199 -23.546875 72.203125 C-29.60330391 74.82317191 -34.58987736 78.00175084 -37.765625 83.93359375 C-39.54253613 89.09552057 -39.59690165 94.24729999 -37.765625 99.40234375 C-29.67898302 114.10270363 -8.44862477 122.20751793 5.640625 129.765625 C36.0440527 146.10589757 61.81301589 164.59155045 72.56640625 198.73828125 C73.99665237 204.67903182 73.79346701 210.75251405 73.765625 216.828125 C73.75825317 218.70673218 73.75825317 218.70673218 73.75073242 220.62329102 C73.41738876 246.8651301 62.66940709 268.47876893 44.21264648 286.80786133 C12.67685472 317.07656827 -36.33986003 326.04204846 -78.546875 325.203125 C-106.37738177 324.03184604 -134.51700461 320.08345976 -159.546875 307.203125 C-158.94395055 298.88708929 -157.7335341 290.75623771 -156.296875 282.546875 C-156.07870117 281.28218384 -155.86052734 280.01749268 -155.63574219 278.71447754 C-155.17783952 276.06177762 -154.71703874 273.40960424 -154.25390625 270.7578125 C-153.66084672 267.36145981 -153.07380167 263.9641012 -152.4887085 260.5663681 C-151.92733572 257.3094241 -151.36204251 254.05316233 -150.796875 250.796875 C-150.58643555 249.57818726 -150.37599609 248.35949951 -150.15917969 247.10388184 C-149.96227539 245.97840942 -149.76537109 244.85293701 -149.5625 243.69335938 C-149.39008789 242.70283569 -149.21767578 241.71231201 -149.04003906 240.69177246 C-148.546875 238.203125 -148.546875 238.203125 -147.546875 235.203125 C-144.02046519 236.50057767 -140.80913981 238.12304646 -137.53955078 239.96948242 C-108.69672825 256.12523334 -68.75721163 261.4210139 -36.734375 252.453125 C-29.10590539 249.92595958 -20.74258323 246.41974315 -16.546875 239.203125 C-13.32474742 232.28502755 -12.7732465 226.35144123 -15.26953125 219.10546875 C-18.7834556 211.21054781 -24.74651618 206.54076232 -31.88671875 201.96875 C-32.49892776 201.57629593 -33.11113678 201.18384186 -33.74189758 200.77949524 C-39.76967063 196.97255391 -46.01025595 193.64205278 -52.3404541 190.37158203 C-68.57249459 181.96419065 -84.65586103 173.21911617 -98.546875 161.203125 C-99.22492187 160.66816406 -99.90296875 160.13320313 -100.6015625 159.58203125 C-114.29260728 148.47470504 -123.30407197 131.62152986 -125.546875 114.203125 C-127.54311886 89.89692833 -123.19455606 64.27031955 -107.00390625 45.09765625 C-80.25556864 14.74968552 -40.03051347 0.2054045 0 0 Z " fill="#006CB5" transform="translate(1103.546875,574.796875)"/>
<path d="M0 0 C27.39 0 54.78 0 83 0 C82.40654589 7.71490349 81.8222022 15.10684528 80.55583191 22.68315125 C80.41235284 23.56901328 80.26887376 24.45487532 80.12104684 25.36758167 C79.64599415 28.29238959 79.16323695 31.21586892 78.68041992 34.1394043 C78.33474533 36.25760362 77.98955431 38.37588191 77.64480591 40.49423218 C76.70887381 46.23665521 75.76623157 51.97795869 74.82240844 57.71908927 C73.82171421 63.81368361 72.8273835 69.90931615 71.83235168 76.00483704 C70.04267355 86.96277329 68.2483843 97.91994764 66.45157561 108.87671677 C64.01579887 123.73020163 61.58659929 138.58475999 59.15820312 153.43945312 C58.33201038 158.49318247 57.5057734 163.54690457 56.67947388 168.60061646 C56.47658221 169.84152672 56.27369055 171.08243698 56.06465065 172.36095059 C54.64607157 181.03588621 53.22550424 189.71049488 51.8041687 198.38497925 C48.38477154 219.25760873 44.96917546 240.13071523 41.60787857 261.01279247 C41.16764657 263.74759161 40.72697148 266.482319 40.28617191 269.21702671 C39.09866321 276.58626591 37.91248187 283.95569139 36.7366786 291.32680845 C36.28146838 294.17590654 35.82311652 297.02449249 35.3639009 299.87294745 C35.0574324 301.78098223 34.75522764 303.68970033 34.45315742 305.59843636 C34.27411306 306.70615332 34.0950687 307.81387028 33.91059875 308.95515442 C33.75751409 309.91369733 33.60442942 310.87224024 33.44670582 311.8598299 C33 314 33 314 32 315 C29.41360962 315.09507821 26.8540144 315.12556376 24.26733398 315.11352539 C23.05279541 315.11374443 23.05279541 315.11374443 21.8137207 315.1139679 C19.12448492 315.11326854 16.43531751 315.1054751 13.74609375 315.09765625 C11.88664284 315.09579215 10.02719144 315.09436821 8.16773987 315.09336853 C3.26370904 315.08954271 -1.64029236 315.07971188 -6.54431152 315.06866455 C-11.54451092 315.05845181 -16.54471506 315.05387121 -21.54492188 315.04882812 C-31.36329477 315.03808967 -41.18164353 315.02061702 -51 315 C-49.62894995 303.28175476 -47.88894142 291.65071377 -45.98168945 280.00878906 C-45.68036199 278.15576695 -45.37929366 276.30270268 -45.07846069 274.44960022 C-44.2641109 269.43790119 -43.44615207 264.42679731 -42.62752557 259.41579533 C-41.75290778 254.05804043 -40.88168525 248.69973337 -40.01005554 243.3414917 C-38.34455697 233.10623476 -36.67605285 222.87147014 -35.00646418 212.63687968 C-33.1663266 201.35594626 -31.32947795 190.07447827 -29.49296403 178.79295444 C-26.25161717 158.88206968 -23.00650441 138.97180131 -19.75918031 119.0618906 C-17.2175191 103.47773773 -14.6810183 87.89275261 -12.14801419 72.30719042 C-11.09530125 65.83100358 -10.0416872 59.35496328 -8.98802513 52.87893081 C-7.9950481 46.77526802 -7.00349121 40.67137675 -6.01298094 34.56731319 C-5.40796376 30.84111309 -4.80154815 27.11514161 -4.19472337 23.3892355 C-3.91484368 21.66894147 -3.63555472 19.94855122 -3.35689712 18.22805882 C-2.97807043 15.88955524 -2.59716997 13.55139867 -2.21574402 11.21331787 C-2.05147768 10.19446939 -2.05147768 10.19446939 -1.88389283 9.15503812 C-1.3753212 6.05082566 -0.7642043 3.05681719 0 0 Z " fill="#006CB5" transform="translate(863,579)"/>
</svg>
